<?xml version="1.0" encoding="UTF-8"?>
<svg id="Layer_1" xmlns="http://www.w3.org/2000/svg" viewBox="0 0 987.96 185.38">
  <defs>
    <style>
      .cls-1 {
        stroke-width: .5px;
      }

      .cls-1, .cls-2 {
        fill: #fff;
        stroke: #fff;
        stroke-miterlimit: 10;
      }
    </style>
  </defs>
  <g>
    <path class="cls-1" d="M965.89,179.13c-12.03,0-21.82-9.67-21.82-21.55v-60.87c0-.29.02-.58.06-.87.28-1.91.42-3.88.42-5.85s-.14-3.93-.42-5.85c-.38-2.64-1.02-5.22-1.9-7.67-4.17-11.75-13.79-21.21-25.76-25.31-2.52-.87-5.14-1.5-7.8-1.87-1.98-.29-4.02-.43-6.07-.43s-4.09.14-6.05.43c-2.68.38-5.3,1.01-7.8,1.87-11.98,4.11-21.6,13.56-25.77,25.29-.88,2.46-1.52,5.01-1.9,7.61-.29,1.93-.43,3.92-.43,5.92s.14,3.99.43,5.91c.04.29.07.59.07.89v60.8c0,11.88-9.79,21.55-21.82,21.55s-21.82-9.67-21.82-21.55v-67.59c0-5.67.58-11.31,1.71-16.77,2.48-12.05,7.79-23.64,15.34-33.52,4.85-6.35,10.58-11.99,17.02-16.74,10.03-7.4,21.79-12.61,34.03-15.04,5.52-1.11,11.25-1.68,16.99-1.68s11.47.56,17,1.68c12.23,2.43,24,7.64,34.03,15.04,6.46,4.77,12.19,10.4,17.02,16.74,7.55,9.87,12.86,21.47,15.34,33.52,1.13,5.45,1.71,11.09,1.71,16.76v67.59c0,11.88-9.79,21.55-21.82,21.55Z"/>
    <path class="cls-2" d="M981.71,90v67.59c0,8.59-7.08,15.55-15.82,15.55h0c-8.74,0-15.82-6.96-15.82-15.55v-60.87c.32-2.19.49-4.44.49-6.72s-.17-4.53-.49-6.72c-.44-3.05-1.17-6-2.19-8.83-4.8-13.53-15.69-24.23-29.45-28.96-2.85-.98-5.84-1.7-8.91-2.14-2.26-.32-4.56-.49-6.91-.49s-4.65.16-6.91.49c-3.07.43-6.06,1.15-8.91,2.15-13.75,4.72-24.66,15.43-29.45,28.95-1.01,2.8-1.74,5.74-2.18,8.76-.33,2.22-.5,4.48-.5,6.79s.17,4.57.5,6.79v60.8c0,8.59-7.08,15.55-15.82,15.55h0c-8.74,0-15.82-6.96-15.82-15.55v-67.59c0-5.32.54-10.52,1.59-15.55,2.37-11.49,7.32-22.06,14.23-31.09,4.5-5.89,9.83-11.14,15.82-15.56,9.19-6.79,19.95-11.66,31.64-13.99,5.11-1.03,10.41-1.56,15.82-1.56s10.71.53,15.82,1.56c11.69,2.33,22.45,7.2,31.65,13.99,5.99,4.43,11.32,9.67,15.82,15.56,6.91,9.04,11.86,19.6,14.23,31.09,1.05,5.02,1.59,10.23,1.59,15.55Z"/>
  </g>
  <g>
    <path class="cls-2" d="M564.09,184.88c-1.28,0-2.58-.04-3.86-.11l-.97-.06c-3.87-.27-7.69-.88-11.39-1.79-8.58-2.13-16.38-5.86-23.18-11.08-4.31-3.3-8.1-7.13-11.25-11.4-4.96-6.69-8.26-14.42-9.53-22.36-.58-3.62-.75-7.31-.5-10.98l.02-.23c.57-8.04,7.46-14.33,15.69-14.33.34,0,.68.01,1.03.03l2.02.13c4.23.27,8.09,2.16,10.88,5.33,2.74,3.12,4.1,7.11,3.82,11.24-.17,2.52.15,5.02.93,7.43,2.14,6.6,7.74,12.21,15,15.01,2.82,1.09,5.81,1.74,8.9,1.94.66.04,1.32.06,1.98.06,2.41,0,4.8-.29,7.09-.85,7.58-1.85,13.89-6.7,16.88-12.98,1.1-2.3,1.74-4.74,1.91-7.26.17-2.52-.15-5.01-.93-7.43-2.14-6.6-7.74-12.21-15-15-2.8-1.08-5.77-1.73-8.83-1.93-4.06-.27-8.02-.88-11.84-1.83-8.55-2.13-16.33-5.84-23.11-11.02-.05-.04-.1-.08-.16-.12-4.28-3.29-8.03-7.1-11.16-11.33-4.97-6.71-8.26-14.44-9.53-22.36-.58-3.59-.75-7.29-.51-10.97.24-3.67.9-7.31,1.95-10.82,2.31-7.7,6.6-14.95,12.4-20.96,3.68-3.82,7.94-7.14,12.65-9.86,7.42-4.3,15.64-7,24.43-8.03,2.52-.29,5.09-.44,7.64-.44,1.28,0,2.58.04,3.85.11l.96.06c3.83.27,7.59.86,11.23,1.75,8.57,2.11,16.38,5.81,23.19,11,4.39,3.34,8.23,7.21,11.41,11.52,4.96,6.7,8.26,14.44,9.53,22.37.42,2.64.62,5.32.61,7.97,0,.12,0,.25-.01.37l-.17,2.63c-.54,8.17-7.44,14.56-15.71,14.56-.34,0-.68-.01-1.03-.03l-2.1-.13c-4.23-.27-8.09-2.16-10.88-5.33-2.74-3.12-4.1-7.11-3.82-11.24.17-2.52-.15-5.02-.93-7.43-2.13-6.6-7.74-12.2-15-15-2.81-1.09-5.8-1.74-8.89-1.94-.66-.04-1.32-.06-1.98-.06-2.41,0-4.8.29-7.1.85-7.58,1.85-13.89,6.7-16.88,12.98-1.1,2.3-1.74,4.74-1.91,7.26-.17,2.52.15,5.02.93,7.43,2.13,6.6,7.74,12.2,15,15,2.81,1.09,5.81,1.74,8.9,1.94,4,.26,7.94.86,11.76,1.79,8.58,2.11,16.38,5.81,23.2,11,.04.03.07.05.1.08,4.34,3.32,8.15,7.17,11.31,11.44,4.96,6.69,8.26,14.43,9.53,22.36.42,2.64.62,5.32.61,7.97,0,.12,0,.25-.01.37l-.35,5.27c0,.12-.02.24-.04.36-.34,2.63-.89,5.26-1.65,7.82-2.32,7.72-6.6,14.97-12.41,20.97-3.71,3.85-8.03,7.2-12.82,9.96-7.43,4.27-15.65,6.95-24.43,7.95-2.46.28-4.97.42-7.47.42Z"/>
    <path class="cls-2" d="M622.34,55.25l-.17,2.63c-.35,5.28-4.99,9.28-10.36,8.94l-2.1-.13c-5.37-.34-9.45-4.9-9.1-10.18h0c.22-3.35-.21-6.61-1.21-9.68-2.7-8.36-9.56-15.28-18.55-18.75-3.3-1.27-6.89-2.08-10.67-2.33s-7.45.1-10.89.95c-9.37,2.29-17.08,8.28-20.87,16.23-1.39,2.91-2.26,6.09-2.48,9.44s.21,6.61,1.21,9.68c2.7,8.36,9.56,15.28,18.55,18.75,3.3,1.27,6.89,2.08,10.67,2.33h.07c3.66.24,7.22.8,10.65,1.63,7.86,1.93,14.99,5.38,20.99,9.95v.11s.05-.03.08-.04c3.9,2.98,7.32,6.43,10.14,10.25,4.35,5.86,7.28,12.57,8.43,19.74.36,2.29.55,4.62.53,6.99l-.35,5.27c-.3,2.35-.79,4.64-1.45,6.86-2.09,6.96-5.89,13.25-10.97,18.51-3.32,3.45-7.2,6.46-11.5,8.92-6.55,3.76-14.07,6.27-22.12,7.19-3.35.38-6.8.48-10.31.28l-.93-.06c-3.56-.25-7.01-.8-10.33-1.63-7.87-1.96-15-5.43-20.98-10.02-3.88-2.97-7.27-6.41-10.08-10.2-4.35-5.86-7.28-12.58-8.43-19.75-.5-3.13-.66-6.36-.44-9.63,0-.07,0-.14.01-.21.37-5.2,5.06-9.06,10.35-8.73l2.02.13c5.37.34,9.45,4.9,9.1,10.18h0c-.22,3.36.21,6.61,1.21,9.68,2.7,8.36,9.55,15.29,18.55,18.75,3.3,1.27,6.89,2.08,10.67,2.33,3.78.24,7.45-.1,10.89-.95,9.38-2.29,17.08-8.29,20.87-16.23,1.39-2.91,2.26-6.09,2.48-9.44s-.21-6.61-1.21-9.68c-2.7-8.35-9.56-15.28-18.55-18.75-3.28-1.27-6.84-2.08-10.6-2.32h-.07c-3.69-.25-7.28-.81-10.72-1.67-7.84-1.95-14.95-5.4-20.92-9.97-.02-.02-.05-.04-.07-.05-3.88-2.97-7.27-6.41-10.08-10.2-4.34-5.86-7.28-12.57-8.43-19.74-.51-3.13-.66-6.36-.45-9.63.22-3.27.8-6.45,1.71-9.49,2.09-6.96,5.89-13.25,10.97-18.51,3.28-3.4,7.1-6.38,11.34-8.83,6.54-3.79,14.07-6.32,22.13-7.26,3.4-.4,6.89-.51,10.45-.3l.93.06c3.51.25,6.91.79,10.18,1.59,7.86,1.93,14.99,5.38,20.99,9.95,3.93,2.99,7.38,6.47,10.22,10.31,4.34,5.86,7.28,12.58,8.43,19.75.36,2.29.55,4.62.53,6.99Z"/>
  </g>
  <g>
    <path class="cls-2" d="M393.7,180.13c-12.44,0-22.57-10-22.57-22.28v-65.17c0-5.92.6-11.81,1.79-17.51,2.59-12.58,8.13-24.69,16.01-34.99,5.05-6.62,11.03-12.5,17.77-17.47,10.46-7.72,22.75-13.16,35.53-15.71,5.79-1.16,11.76-1.74,17.74-1.74h18.99c12.44,0,22.57,10,22.57,22.28s-10.12,22.28-22.57,22.28h-18.99c-5.01,0-9.92.83-14.59,2.45-12.34,4.28-22.29,14.05-26.64,26.15-1.65,4.57-2.48,9.36-2.48,14.25v65.17c0,12.29-10.12,22.28-22.57,22.28Z"/>
    <path class="cls-2" d="M495.54,27.54h0c0,8.99-7.42,16.28-16.57,16.28h-18.99c-5.81,0-11.39.98-16.57,2.79-14.13,4.9-25.32,15.9-30.31,29.79-1.84,5.09-2.83,10.58-2.83,16.28v65.17c0,8.99-7.42,16.28-16.57,16.28h0c-9.15,0-16.57-7.29-16.57-16.28v-65.17c0-5.57.57-11.02,1.66-16.28,2.48-12.03,7.67-23.11,14.9-32.57,4.71-6.17,10.29-11.65,16.57-16.28,9.63-7.11,20.9-12.21,33.14-14.66,5.35-1.07,10.9-1.62,16.57-1.62h18.99c9.15,0,16.57,7.29,16.57,16.28Z"/>
    <path class="cls-2" d="M459.47,122.57c-10.07,0-18.99-6.7-21.69-16.3-1.72-6.1-.75-12.66,2.66-17.98,3.47-5.42,9.14-9.11,15.56-10.12,1.18-.19,2.38-.28,3.56-.28,4.56,0,8.97,1.36,12.76,3.92.04.03.86.61.9.64,4.67,3.49,7.75,8.54,8.67,14.23.82,5.04-.09,10.07-2.65,14.53-.11.2-.24.39-.37.57-1,1.37-1.93,2.57-2.83,3.68-.13.16-.26.31-.41.45-4.24,4.23-9.9,6.59-15.95,6.65h-.21Z"/>
    <path class="cls-2" d="M474.03,108.25c-.85,1.16-1.73,2.31-2.64,3.43-2.95,2.95-7.04,4.85-11.76,4.9-7.4.07-14.09-4.91-16.06-11.92-2.69-9.56,3.69-19.01,13.38-20.54,4.38-.69,8.64.39,12.02,2.68l.67.48c3.28,2.45,5.64,6.08,6.34,10.39.62,3.79-.16,7.48-1.94,10.59Z"/>
  </g>
  <g>
    <path class="cls-2" d="M273.53,180.13c-20.88,0-41.21-7.33-57.24-20.65-16.24-13.48-27.03-32.29-30.39-52.96-3.71-22.81,1.74-45.74,15.37-64.55,13.93-19.23,34.65-31.88,58.35-35.6,4.67-.73,9.42-1.11,14.12-1.11,20.88,0,41.21,7.34,57.24,20.66,16.23,13.48,27.03,32.3,30.39,52.97.93,5.75,1.28,11.57,1.05,17.3-.05,1.37-.15,2.83-.28,4.32-.02.2-.05.4-.08.6-.54,2.8-1.6,5.44-3.15,7.85-.32.5-.63.93-.96,1.36-.02.03-.04.06-.07.09-.32.41-.63.8-.96,1.18-.02.03-.04.05-.07.08-.67.76-1.42,1.49-2.21,2.18-.8.68-1.64,1.31-2.55,1.9-.12.08-.24.15-.36.21-.67.4-1.31.75-1.94,1.07-.05.02-.1.05-.15.07-.36.16-.73.33-1.1.48-1.56.65-3.22,1.12-4.92,1.41-.1.02-.29.05-.29.05-1.19.19-2.4.28-3.59.28-11.18,0-20.58-7.9-22.34-18.79-.19-1.12-.28-2.35-.27-3.62,0-.14,0-.28.02-.42.06-.7.1-1.39.13-2.09.12-2.87-.05-5.71-.5-8.43-3.4-20.93-21.53-36.11-43.1-36.11-2.32,0-4.67.18-6.98.55-11.68,1.83-21.88,8.05-28.73,17.51-6.67,9.2-9.34,20.41-7.52,31.56,3.41,20.91,21.54,36.1,43.11,36.1,2.32,0,4.67-.18,6.98-.55,1.99-.31,4-.77,5.99-1.38.71-.22,1.41-.45,2.1-.69.19-.07.37-.12.56-.17.61-.15,1.25-.28,1.89-.39,1.23-.19,2.44-.29,3.63-.29,11.15,0,20.53,7.9,22.31,18.79,1.68,10.32-4.26,20.57-14.13,24.35-.07.02-.13.05-.2.07-.34.12-.61.21-.88.29h-.03c-.25.09-.49.17-.73.24-4.41,1.42-8.92,2.49-13.4,3.19-4.67.73-9.42,1.11-14.12,1.11Z"/>
    <path class="cls-2" d="M356.42,95.93c-.05,1.35-.14,2.69-.26,4.02-.4,2.06-1.19,4.01-2.3,5.74-.23.35-.46.67-.71,1-.26.33-.51.65-.78.96-.51.57-1.07,1.12-1.66,1.63-.59.5-1.23.97-1.9,1.4h0c-.54.33-1.08.64-1.66.93-.29.13-.59.27-.89.39-1.2.5-2.47.86-3.81,1.07,0,0-.03.01-.04.01-9.09,1.43-17.64-4.64-19.08-13.54-.15-.87-.2-1.75-.19-2.6.06-.77.12-1.54.15-2.32.13-3.17-.04-6.4-.57-9.66-4.33-26.64-29.83-44.78-56.93-40.52-27.11,4.26-45.58,29.31-41.24,55.96,4.34,26.63,29.83,44.77,56.94,40.51,2.33-.36,4.6-.89,6.8-1.56.8-.24,1.59-.5,2.37-.78.46-.12.94-.21,1.41-.29,9.06-1.43,17.58,4.64,19.03,13.54,1.26,7.73-3.23,15.05-10.36,17.79-.24.08-.47.16-.71.24-.25.08-.5.17-.75.24-4.04,1.3-8.23,2.32-12.57,3-45.18,7.1-87.68-23.14-94.9-67.54-7.23-44.41,23.54-86.16,68.73-93.26,45.18-7.1,87.67,23.14,94.9,67.55.88,5.42,1.19,10.81.98,16.09Z"/>
  </g>
  <g>
    <path class="cls-2" d="M721.1,180.13c-20.88,0-41.21-7.33-57.24-20.65-16.24-13.48-27.03-32.29-30.39-52.96-3.71-22.81,1.75-45.74,15.37-64.55,13.93-19.23,34.65-31.88,58.35-35.6,4.67-.73,9.42-1.11,14.12-1.11,20.88,0,41.21,7.34,57.24,20.66,16.23,13.48,27.03,32.3,30.39,52.97.93,5.74,1.28,11.56,1.05,17.3-.05,1.38-.14,2.8-.28,4.32-.02.2-.05.4-.08.6-.54,2.8-1.6,5.44-3.15,7.85-.32.5-.63.93-.96,1.36-.02.03-.04.06-.07.09-.32.41-.63.8-.96,1.18-.02.03-.04.05-.07.08-.67.76-1.42,1.49-2.21,2.18-.8.68-1.64,1.31-2.55,1.9-.12.08-.24.15-.36.22-.67.4-1.3.75-1.93,1.06-.05.03-.1.05-.16.07-.36.16-.72.33-1.09.48-1.56.65-3.22,1.12-4.92,1.41-.1.02-.29.05-.29.05-1.19.19-2.4.28-3.59.28-11.18,0-20.58-7.9-22.34-18.79-.19-1.11-.28-2.34-.27-3.62,0-.14,0-.29.02-.43.06-.69.1-1.39.13-2.09.12-2.87-.05-5.71-.5-8.43-3.41-20.93-21.53-36.11-43.1-36.11-2.32,0-4.67.18-6.98.55-11.68,1.83-21.88,8.05-28.73,17.51-6.67,9.2-9.34,20.41-7.53,31.56,3.41,20.91,21.54,36.1,43.11,36.1,2.32,0,4.67-.18,6.98-.55,1.99-.31,4-.77,5.99-1.38.71-.22,1.41-.44,2.09-.69.19-.07.38-.12.57-.17.61-.15,1.25-.28,1.89-.39,1.24-.2,2.44-.29,3.63-.29,11.15,0,20.53,7.9,22.31,18.79,1.68,10.32-4.26,20.57-14.13,24.35-.07.02-.13.05-.2.07-.34.12-.61.21-.88.29h-.02c-.25.09-.5.17-.75.24-4.41,1.42-8.92,2.49-13.41,3.19-4.67.73-9.42,1.11-14.12,1.11Z"/>
    <path class="cls-2" d="M803.99,95.93c-.05,1.35-.14,2.69-.26,4.02-.4,2.06-1.19,4.01-2.3,5.74-.23.35-.46.67-.71,1-.26.33-.51.65-.78.96-.51.57-1.07,1.12-1.66,1.63-.59.5-1.23.97-1.9,1.4h0c-.54.33-1.08.64-1.66.93-.29.13-.59.27-.89.39-1.2.5-2.47.86-3.81,1.07,0,0-.03.01-.04.01-9.09,1.43-17.64-4.64-19.08-13.54-.15-.87-.2-1.75-.19-2.6.06-.77.12-1.54.15-2.32.13-3.17-.04-6.4-.57-9.66-4.33-26.64-29.83-44.78-56.93-40.52-27.11,4.26-45.58,29.31-41.24,55.96,4.34,26.63,29.83,44.77,56.94,40.51,2.33-.36,4.6-.89,6.8-1.56.8-.24,1.59-.5,2.37-.78.46-.12.94-.21,1.41-.29,9.06-1.43,17.58,4.64,19.03,13.54,1.26,7.73-3.23,15.05-10.36,17.79-.24.08-.47.16-.71.24-.25.08-.5.17-.75.24-4.04,1.3-8.23,2.32-12.57,3-45.18,7.1-87.68-23.14-94.9-67.54-7.23-44.41,23.54-86.16,68.73-93.26,45.18-7.1,87.67,23.14,94.9,67.55.88,5.42,1.19,10.81.98,16.09Z"/>
  </g>
  <g>
    <path class="cls-2" d="M6.5,180.13c-3.31,0-6-2.69-6-6v-81.53c0-.71.01-1.42.03-2.13.01-.97.05-1.94.12-2.9.02-.41.05-.81.08-1.22,0-.28.03-.56.06-.83.04-.47.08-.95.13-1.42,0-.15.02-.29.04-.43.05-.57.12-1.12.19-1.67l.02-.19c.03-.21.05-.41.08-.62.03-.28.07-.57.12-.84.06-.44.13-.87.2-1.31.29-1.89.69-3.87,1.16-5.9,3.91-16.76,12.7-31.91,25.41-43.83.5-.46.95-.87,1.41-1.29,1.5-1.35,2.95-2.56,4.43-3.72l.31-.24c.42-.33.85-.66,1.27-.98.03-.02.06-.05.09-.07.52-.38.97-.71,1.42-1.03.52-.37,1.04-.74,1.58-1.11.5-.35,1.05-.71,1.61-1.08,0,0,.08-.05.09-.06.55-.35,1.09-.7,1.65-1.05,1.1-.68,2.15-1.3,3.21-1.9.6-.33,1.17-.64,1.72-.94,8.84-4.72,18.4-7.91,28.41-9.49,4.67-.73,9.41-1.1,14.1-1.1,13.24,0,26.02,2.84,38.01,8.45,26.45,12.37,45.01,36.74,49.64,65.17.92,5.72,1.27,11.54,1.04,17.3-.05,1.41-.15,2.88-.28,4.34-.02.19-.04.38-.08.57-.54,2.81-1.6,5.45-3.15,7.86-.33.51-.64.93-.95,1.35-.03.04-.05.07-.08.11-.32.41-.64.8-.97,1.18-.72.81-1.46,1.55-2.26,2.24-.77.66-1.59,1.27-2.55,1.9-.11.07-.23.15-.35.21-.67.41-1.31.76-1.96,1.08-.07.03-.14.07-.21.1-.35.15-.7.31-1.04.45-1.52.63-3.15,1.1-4.82,1.39-.13.03-.26.05-.39.07h0c-1.19.19-2.39.28-3.59.28-11.18,0-20.58-7.9-22.35-18.79-.19-1.12-.27-2.35-.26-3.63,0-.13,0-.26.02-.38.05-.7.11-1.4.13-2.1.11-2.9-.05-5.75-.49-8.47-3.4-20.92-21.53-36.11-43.11-36.11-2.32,0-4.67.18-6.98.55-6.28.99-12.12,3.23-17.36,6.67,0,0-.09.06-.09.06-7.52,4.95-13.22,11.98-16.48,20.32l-.13.32c-.15.41-.3.8-.44,1.2-.18.53-.34.99-.48,1.47-.02.08-.05.17-.08.25-.06.19-.12.38-.17.57-.02.09-.05.17-.07.25-.08.25-.14.5-.2.75-.18.69-.31,1.24-.41,1.78-.02.11-.04.21-.07.32-.05.19-.08.38-.11.57,0,.06-.02.11-.03.17-.11.6-.21,1.21-.29,1.82-.04.31-.08.62-.12.92,0,.05-.01.1-.02.15-.03.25-.06.5-.08.76-.04.45-.07.87-.1,1.28-.01.23-.03.48-.04.73-.03.68-.04,1.31-.04,1.94v81.46c0,3.31-2.69,6-6,6H6.5Z"/>
    <path class="cls-2" d="M172.15,95.94c-.05,1.34-.13,2.68-.26,4.02-.39,2.06-1.18,4-2.3,5.73-.23.35-.47.68-.71,1-.26.33-.52.65-.79.96-.51.58-1.07,1.12-1.65,1.63-.6.51-1.24.97-1.9,1.41h0c-.53.33-1.08.64-1.65.93-.3.13-.6.26-.89.39-1.2.5-2.47.86-3.81,1.07,0,0-.03.02-.04.02-9.09,1.43-17.63-4.64-19.09-13.54-.14-.87-.19-1.75-.18-2.6.06-.77.12-1.55.14-2.32.12-3.17-.04-6.39-.57-9.65-4.33-26.64-29.84-44.79-56.94-40.53-7.29,1.15-13.96,3.8-19.72,7.58-.03.02-.05.04-.08.05-8.55,5.63-15.12,13.76-18.78,23.16-.05.13-.1.25-.15.38-.17.45-.33.9-.49,1.36-.2.58-.4,1.16-.57,1.76-.12.34-.21.68-.3,1.02-.11.35-.19.69-.28,1.04-.18.69-.35,1.39-.48,2.1-.09.35-.15.7-.21,1.06-.13.71-.25,1.43-.35,2.14-.05.36-.1.72-.13,1.08-.05.36-.09.72-.12,1.09-.04.45-.08.91-.11,1.36-.02.3-.04.61-.05.93-.03.71-.05,1.42-.05,2.12v81.46H6.5v-81.53c0-.67,0-1.34.03-2.01,0-.89.05-1.78.12-2.65.02-.43.05-.84.09-1.27,0-.17,0-.34.04-.51.04-.54.09-1.08.14-1.62,0-.08,0-.16.02-.24.05-.51.11-1.01.17-1.5.04-.29.07-.58.12-.86.02-.24.06-.47.1-.7.06-.43.12-.85.19-1.27.29-1.84.65-3.66,1.08-5.47,3.66-15.68,11.98-29.86,23.67-40.82.44-.41.87-.8,1.32-1.2,1.34-1.2,2.7-2.35,4.11-3.46.5-.39,1.01-.78,1.52-1.17.45-.33.9-.66,1.35-.98.49-.35.98-.7,1.48-1.04.49-.34.99-.67,1.5-1,.56-.36,1.11-.72,1.68-1.08.97-.6,1.96-1.18,2.96-1.75.53-.29,1.07-.59,1.6-.87,8.04-4.3,16.95-7.35,26.5-8.85,17.2-2.7,34.01,0,48.64,6.86,23.78,11.13,41.78,33.2,46.26,60.7.87,5.42,1.18,10.8.97,16.09Z"/>
  </g>
</svg>